<?xml version="1.0" encoding="UTF-8"?>
<svg version="1.1" xmlns="http://www.w3.org/2000/svg" width="500" height="500">
<path d="M0 0 C1.72382149 -0.01210762 1.72382149 -0.01210762 3.48246765 -0.02445984 C5.92083243 -0.03826849 8.35921628 -0.04900498 10.79760742 -0.05688477 C13.23972423 -0.06828227 15.68181863 -0.08853359 18.1237793 -0.1184082 C43.3760675 -0.42655188 67.07451867 2.75194003 91.19921875 10.23828125 C91.9989209 10.47853027 92.79862305 10.7187793 93.62255859 10.96630859 C115.46715244 17.61466324 137.49668558 28.12840046 156.19921875 41.23828125 C156.83456543 41.68268555 157.46991211 42.12708984 158.12451172 42.58496094 C171.30229853 51.88654521 183.50091726 62.14773532 195.19921875 73.23828125 C195.95332031 73.94984375 196.70742188 74.66140625 197.484375 75.39453125 C216.86027462 94.19262074 231.71625976 117.96748157 243.19921875 142.23828125 C243.53308594 142.93791992 243.86695313 143.63755859 244.2109375 144.35839844 C251.49600368 159.74496062 257.06711115 175.59417023 260.94921875 192.17578125 C261.13572998 192.95920898 261.32224121 193.74263672 261.5144043 194.54980469 C265.48717195 212.55112963 266.74930904 230.5370141 266.63671875 248.92578125 C266.6340097 249.97111023 266.63130066 251.01643921 266.62850952 252.09344482 C266.56428407 268.48421765 265.57614354 284.15875198 262.19921875 300.23828125 C261.84396719 302.113076 261.48979108 303.98807487 261.13671875 305.86328125 C252.8621071 347.55996875 232.12820061 383.95584504 205.19921875 416.23828125 C204.65330078 416.90746582 204.10738281 417.57665039 203.54492188 418.26611328 C203.01318359 418.90790527 202.48144531 419.54969727 201.93359375 420.2109375 C201.45631836 420.79238525 200.97904297 421.37383301 200.48730469 421.97290039 C199.19921875 423.23828125 199.19921875 423.23828125 197.19921875 423.23828125 C196.79546021 424.13450195 196.79546021 424.13450195 196.38354492 425.04882812 C195.19582789 427.24454989 194.06132023 428.57356572 192.25 430.26953125 C191.36018433 431.10556885 191.36018433 431.10556885 190.45239258 431.95849609 C189.81197021 432.5458252 189.17154785 433.1331543 188.51171875 433.73828125 C187.84615967 434.35268066 187.18060059 434.96708008 186.49487305 435.60009766 C171.6786865 449.12572417 155.54814311 460.21831955 138.19921875 470.23828125 C137.60270508 470.58391113 137.00619141 470.92954102 136.39160156 471.28564453 C101.51700338 491.27007243 60.36697015 500.87965255 20.37060547 500.62939453 C17.33254887 500.61332531 14.29582913 500.62934895 11.2578125 500.6484375 C-7.0502701 500.66909272 -25.10764469 498.80859564 -42.92578125 494.48828125 C-44.53706909 494.10530884 -44.53706909 494.10530884 -46.1809082 493.71459961 C-62.07844024 489.82451546 -77.20420685 484.6635103 -91.80078125 477.23828125 C-92.5892041 476.84656738 -93.37762695 476.45485352 -94.18994141 476.05126953 C-115.78425308 465.30544073 -135.51819589 452.26315961 -153.12109375 435.7265625 C-155.37904509 433.6298934 -157.67544993 431.63614505 -160.05078125 429.67578125 C-160.95828125 428.87140625 -161.86578125 428.06703125 -162.80078125 427.23828125 C-162.80078125 426.57828125 -162.80078125 425.91828125 -162.80078125 425.23828125 C-163.46078125 425.23828125 -164.12078125 425.23828125 -164.80078125 425.23828125 C-164.80078125 424.57828125 -164.80078125 423.91828125 -164.80078125 423.23828125 C-165.46078125 423.23828125 -166.12078125 423.23828125 -166.80078125 423.23828125 C-169.38315814 420.81826938 -171.54861708 417.96210283 -173.80078125 415.23828125 C-174.44781006 414.46556885 -174.44781006 414.46556885 -175.10791016 413.67724609 C-183.44618792 403.68701794 -190.83243761 393.22256603 -197.80078125 382.23828125 C-198.46207031 381.20646729 -198.46207031 381.20646729 -199.13671875 380.15380859 C-216.43894811 352.92245897 -226.37748271 321.90366562 -231.55078125 290.23828125 C-231.66647461 289.53437256 -231.78216797 288.83046387 -231.90136719 288.10522461 C-233.83089324 275.39175923 -234.00805693 262.56846877 -233.98828125 249.73828125 C-233.98734467 248.94836792 -233.98640808 248.15845459 -233.98544312 247.34460449 C-233.91358768 219.27779931 -230.09878539 192.81778984 -220.80078125 166.23828125 C-220.5677832 165.55894531 -220.33478516 164.87960938 -220.09472656 164.1796875 C-213.82231925 146.02597833 -205.18513566 129.36219289 -194.80078125 113.23828125 C-194.4253418 112.64901855 -194.04990234 112.05975586 -193.66308594 111.45263672 C-189.12566311 104.34903523 -184.21049827 97.69806466 -178.80078125 91.23828125 C-178.35718262 90.70444824 -177.91358398 90.17061523 -177.45654297 89.62060547 C-168.33439473 78.66846341 -158.75736477 68.39971832 -147.80078125 59.23828125 C-146.98222656 58.5421875 -146.16367188 57.84609375 -145.3203125 57.12890625 C-109.29308907 26.97625172 -65.00587059 8.41775734 -18.80078125 1.23828125 C-17.79104248 1.06248535 -16.78130371 0.88668945 -15.7409668 0.70556641 C-10.48668699 0.08243662 -5.28714545 0.035984 0 0 Z M-31.80078125 113.23828125 C-32.56648438 113.91375 -33.3321875 114.58921875 -34.12109375 115.28515625 C-46.74687146 127.01214978 -55.40767065 144.64208297 -56.1015625 162 C-56.34985347 182.58332163 -50.86729282 197.29375701 -40.36889648 214.63720703 C-38.81326729 217.21757033 -37.28619557 219.81291207 -35.765625 222.4140625 C-35.26611328 223.26162109 -34.76660156 224.10917969 -34.25195312 224.98242188 C-33.23328272 226.71087553 -32.22035645 228.44272601 -31.21289062 230.17773438 C-26.54336748 238.38790465 -26.54336748 238.38790465 -18.80078125 243.23828125 C-14.07706315 243.78713231 -10.69943243 243.70424853 -6.42578125 241.48828125 C-3.39285521 238.88863036 -1.19288706 236.86922902 -0.24194336 232.91381836 C0.10508311 224.05753559 -3.74904873 217.99030504 -8.36328125 210.80078125 C-9.07714812 209.65310672 -9.78875093 208.50402073 -10.49804688 207.35351562 C-11.90093869 205.08337573 -13.31308518 202.82001282 -14.73095703 200.55908203 C-16.75432436 197.31281612 -18.74642444 194.05249639 -20.703125 190.765625 C-21.25347412 189.84386475 -21.80382324 188.92210449 -22.37084961 187.97241211 C-27.65675046 177.86539425 -27.49337794 164.35735747 -24.890625 153.41015625 C-23.72802739 150.49431658 -22.44501645 147.90907599 -20.80078125 145.23828125 C-20.35476562 144.50867188 -19.90875 143.7790625 -19.44921875 143.02734375 C-12.61925614 133.06857145 -4.22233436 127.80082727 7.19921875 124.23828125 C7.82957031 124.03589844 8.45992188 123.83351563 9.109375 123.625 C18.34822987 121.91538013 28.55988791 122.59911107 37.19921875 126.23828125 C37.99328125 126.55539063 38.78734375 126.8725 39.60546875 127.19921875 C44.86524066 129.54614229 48.96495672 132.6326839 53.26171875 136.42578125 C57.86639405 140.4411634 61.85703377 143.49811006 68.19921875 143.23828125 C72.71290864 142.41761036 75.46668582 141.00837997 78.63671875 137.67578125 C81.71901923 132.86739251 81.784126 128.87783475 81.19921875 123.23828125 C76.39080515 112.31006852 61.63910639 104.64143251 50.92626953 100.32177734 C22.6940532 89.82956643 -8.9538777 91.93618613 -31.80078125 113.23828125 Z M3.82421875 152.67578125 C-1.35385083 159.26093496 -1.46445268 166.11365838 -0.80078125 174.23828125 C0.39786755 180.67829433 3.94245929 185.39305905 9.19921875 189.23828125 C14.55140948 192.05453752 18.64722388 192.63949607 24.63671875 192.42578125 C25.36826172 192.41224609 26.09980469 192.39871094 26.85351562 192.38476562 C28.63574297 192.34981999 30.41758448 192.2960293 32.19921875 192.23828125 C32.45678955 192.94927979 32.71436035 193.66027832 32.97973633 194.39282227 C34.28705303 197.44322791 35.87694293 200.00102433 37.7109375 202.765625 C38.38576172 203.80525391 39.06058594 204.84488281 39.75585938 205.91601562 C41.17816664 208.0918459 42.61051298 210.26114627 44.05273438 212.42382812 C44.72369141 213.46474609 45.39464844 214.50566406 46.0859375 215.578125 C46.70686279 216.52034912 47.32778809 217.46257324 47.9675293 218.43334961 C49.48289742 221.8843039 49.23254591 223.65643413 48.19921875 227.23828125 C46.37890625 229.73046875 46.37890625 229.73046875 44.07421875 232.11328125 C43.2646875 232.96535156 42.45515625 233.81742187 41.62109375 234.6953125 C40.821875 235.53449219 40.02265625 236.37367188 39.19921875 237.23828125 C37.35152716 239.39274607 35.52357721 241.56145479 33.70703125 243.7421875 C32.19921875 245.23828125 32.19921875 245.23828125 29.19921875 246.23828125 C27.34982526 246.21565241 25.50016739 246.1885049 23.65185547 246.12133789 C13.75779075 245.78155265 13.75779075 245.78155265 5.19921875 250.23828125 C1.09467779 254.13523623 -1.30356445 258.16985605 -3.80078125 263.23828125 C-4.90591064 263.25286377 -6.01104004 263.26744629 -7.1496582 263.2824707 C-11.24813264 263.34042391 -15.34605592 263.41765644 -19.4440918 263.50073242 C-21.21808937 263.53399589 -22.99219315 263.56202343 -24.76635742 263.5847168 C-27.31605301 263.61823727 -29.86477417 263.6705499 -32.4140625 263.7265625 C-33.60483147 263.73614738 -33.60483147 263.73614738 -34.81965637 263.7459259 C-38.92638612 263.80861205 -38.92638612 263.80861205 -42.61254883 265.4140625 C-44.2223726 267.88552402 -45.74174885 270.37166568 -47.19921875 272.9375 C-48.16601562 274.62842773 -48.16601562 274.62842773 -49.15234375 276.35351562 C-49.82709004 277.54411949 -50.50156748 278.73487575 -51.17578125 279.92578125 C-52.49378901 282.24351328 -53.81500798 284.55937326 -55.13671875 286.875 C-55.7615918 287.97118652 -56.38646484 289.06737305 -57.03027344 290.19677734 C-58.55785075 292.82095801 -60.13895873 295.38959351 -61.77734375 297.9453125 C-63.97529239 300.87812239 -63.97529239 300.87812239 -63.80078125 303.23828125 C-64.49042969 303.13128906 -65.18007812 303.02429688 -65.890625 302.9140625 C-73.6511805 301.92403279 -79.40814861 302.27598984 -85.99609375 306.71875 C-91.86482096 311.45054666 -95.32475255 315.99865064 -96.17578125 323.578125 C-96.42172017 330.77952388 -95.95942969 336.27658243 -91.80078125 342.23828125 C-90.99640625 343.56859375 -90.99640625 343.56859375 -90.17578125 344.92578125 C-84.96307693 350.00130914 -79.07009256 352.53541283 -71.80078125 352.86328125 C-64.04916887 352.4946313 -57.71654155 349.63090697 -52.36328125 343.98828125 C-48.25353444 338.62116147 -46.17808204 332.14520258 -46.4375 325.359375 C-47.30581752 320.28952111 -49.13601822 314.90304428 -52.80078125 311.23828125 C-52.62886457 305.69601488 -50.0786736 302.01310839 -47.11328125 297.55078125 C-46.20191538 296.1409434 -45.2930659 294.72947573 -44.38671875 293.31640625 C-43.94424805 292.62740234 -43.50177734 291.93839844 -43.04589844 291.22851562 C-40.80275485 287.64300454 -38.82745961 283.92072085 -36.859375 280.1796875 C-35.80078125 278.23828125 -35.80078125 278.23828125 -34.80078125 277.23828125 C-30.47755974 276.82737067 -26.14977357 276.71041249 -21.81030273 276.61352539 C-20.35386788 276.57193146 -18.89785352 276.51061943 -17.44311523 276.42895508 C-12.76957414 276.17088068 -8.385388 276.11222583 -3.80078125 277.23828125 C-1.40013834 279.60138898 -0.23999501 281.63717297 1.05200195 284.7331543 C3.37596524 289.8078909 8.25082942 292.32626922 13.13671875 294.61328125 C17.19854854 295.44222611 21.073434 295.3756841 25.19921875 295.23828125 C25.55886719 296.42421875 25.91851562 297.61015625 26.2890625 298.83203125 C28.3568895 305.02944111 31.10874167 310.91382591 33.86987305 316.82519531 C34.77120196 318.75862355 35.66032491 320.69736853 36.54882812 322.63671875 C37.12037303 323.86882416 37.6926128 325.10060754 38.265625 326.33203125 C38.78068604 327.44255859 39.29574707 328.55308594 39.82641602 329.69726562 C40.94582329 332.35089814 40.94582329 332.35089814 43.19921875 333.23828125 C46.26280974 333.27410943 49.30879283 333.25358553 52.37109375 333.203125 C54.25129523 333.19709381 56.13150769 333.19392969 58.01171875 333.19335938 C60.98006562 333.19164158 63.94441033 333.17588545 66.91210938 333.11157227 C83.50476257 332.77811418 83.50476257 332.77811418 87.72241211 336.41259766 C89.2734375 339.0859375 89.2734375 339.0859375 90.23706055 341.74633789 C92.13289322 346.65645312 97.00159136 349.20051276 101.58984375 351.3671875 C108.23154845 353.58440329 115.24609282 353.08614477 121.57421875 350.17578125 C128.10195488 346.4142126 131.81219979 342.23250496 134.19921875 335.05078125 C135.80048715 328.07040164 135.36079853 321.20549204 131.89453125 314.84375 C126.93513671 307.91858509 121.459321 304.20701028 113.19921875 302.23828125 C106.64610501 301.5484798 101.32844987 302.96706512 96.01953125 306.8203125 C92.30920015 309.939437 89.3915353 312.85364814 87.19921875 317.23828125 C86.53921875 318.22828125 85.87921875 319.21828125 85.19921875 320.23828125 C82.4329296 320.50504285 79.89302244 320.58632314 77.12890625 320.53125 C76.33267853 320.52700516 75.53645081 320.52276031 74.71609497 320.51838684 C72.16846146 320.50156959 69.62161386 320.46391304 67.07421875 320.42578125 C65.34896974 320.4107383 63.62370836 320.39704921 61.8984375 320.38476562 C57.66506093 320.35165626 53.43227316 320.2998541 49.19921875 320.23828125 C48.82953979 319.41589966 48.82953979 319.41589966 48.45239258 318.5769043 C41.85353668 303.89504998 41.85353668 303.89504998 35.19921875 289.23828125 C35.81539062 288.95597656 36.4315625 288.67367187 37.06640625 288.3828125 C41.46179027 286.02411741 43.79097057 281.89633294 45.19921875 277.23828125 C46.50510222 270.70886389 46.51269868 264.21333267 43.0625 258.28515625 C41.8765589 255.47324161 42.20653386 254.10652564 43.19921875 251.23828125 C45.01953125 248.84375 45.01953125 248.84375 47.32421875 246.42578125 C48.13503906 245.55953125 48.94585937 244.69328125 49.78125 243.80078125 C50.57917969 242.95515625 51.37710938 242.10953125 52.19921875 241.23828125 C54.56147891 238.5962194 56.88635048 235.92361142 59.19921875 233.23828125 C59.98296875 232.33078125 60.76671875 231.42328125 61.57421875 230.48828125 C63.2158573 228.21524326 63.80899804 226.97493967 64.19921875 224.23828125 C63.6528852 222.35194512 63.6528852 222.35194512 62.59375 220.5390625 C62.21814941 219.84248535 61.84254883 219.1459082 61.45556641 218.42822266 C59.32838692 214.72033303 57.13729281 211.06005899 54.88671875 207.42578125 C54.16693848 206.24991455 54.16693848 206.24991455 53.43261719 205.05029297 C51.3043852 201.58531432 49.15866991 198.14106268 46.890625 194.765625 C46.24996094 193.80785156 45.60929688 192.85007813 44.94921875 191.86328125 C44.3871875 191.05117187 43.82515625 190.2390625 43.24609375 189.40234375 C42.19921875 187.23828125 42.19921875 187.23828125 42.40234375 185.16796875 C43.2012372 183.23339344 44.09908797 181.51790456 45.19921875 179.73828125 C48.45780191 174.15382533 49.12145284 168.60408665 47.7734375 162.22265625 C45.51625494 155.18800139 40.78395518 150.43805693 35.26171875 145.73828125 C24.15023953 140.10678155 11.7132304 144.22326877 3.82421875 152.67578125 Z M64.82421875 256.73828125 C62.54236308 261.6530473 62.16518638 265.91378622 63.19921875 271.23828125 C65.59381377 275.57945029 68.6700697 278.28420198 73.19921875 280.23828125 C75.21837762 280.51041143 75.21837762 280.51041143 77.33422852 280.43359375 C78.54182579 280.42368408 78.54182579 280.42368408 79.77381897 280.41357422 C80.63736496 280.39697754 81.50091095 280.38038086 82.390625 280.36328125 C83.29111069 280.35570801 84.19159637 280.34813477 85.11936951 280.34033203 C88.96140183 280.30778106 92.80300359 280.25192035 96.64477539 280.19726562 C115.17848496 279.95621798 129.76656291 280.4033697 143.9375 293.7734375 C147.42047783 297.56922163 149.89116607 301.65274612 152.19921875 306.23828125 C152.52664063 306.86734375 152.8540625 307.49640625 153.19140625 308.14453125 C155.21855869 312.39189826 155.93706629 316.59103313 156.19921875 321.23828125 C156.25207031 322.14707031 156.30492187 323.05585938 156.359375 323.9921875 C156.75109183 337.05509224 153.51316688 348.37917361 145.07421875 358.36328125 C138.57502583 365.26405032 131.97872964 368.73509873 123.01171875 371.61328125 C117.54150875 373.49236102 113.77738007 375.3100285 110.28125 379.9921875 C108.30539877 384.09368375 108.26175046 387.83144211 109.19921875 392.23828125 C111.17644168 396.122112 113.28599284 399.22878686 117.19921875 401.23828125 C128.08331298 404.50350952 139.20600686 398.73089324 148.66455078 393.65454102 C155.41422775 389.79470629 160.79463907 384.77388104 166.19921875 379.23828125 C166.864375 378.59375 167.52953125 377.94921875 168.21484375 377.28515625 C181.44863063 363.57447615 186.51171875 343.66727787 186.51171875 325.13696289 C186.13787387 305.18511647 177.810695 286.94524662 163.82421875 272.84375 C147.97028198 257.90636895 126.9696733 251.14171808 105.44140625 251.03515625 C104.53472198 251.02945618 103.62803772 251.0237561 102.69387817 251.0178833 C100.7895828 251.00849314 98.88527161 251.00192334 96.98095703 250.99804688 C94.0755611 250.98828576 91.17085711 250.95718386 88.265625 250.92578125 C86.40755624 250.91925504 84.54948248 250.91400307 82.69140625 250.91015625 C81.82877167 250.89780945 80.96613708 250.88546265 80.07736206 250.8727417 C73.71310311 250.8961886 69.36782811 251.95553456 64.82421875 256.73828125 Z M-141.48828125 295.48828125 C-150.62726874 308.10734676 -149.7010086 329.28240238 -147.38916016 343.828125 C-146.35033862 348.51634562 -144.73066892 352.83588497 -142.80078125 357.23828125 C-142.36636719 358.285 -141.93195313 359.33171875 -141.484375 360.41015625 C-133.19663298 378.63846632 -118.54697049 392.45920798 -99.96484375 399.81640625 C-90.54948839 403.25093839 -82.71234355 404.44137208 -72.73828125 404.48828125 C-71.66900391 404.50890625 -70.59972656 404.52953125 -69.49804688 404.55078125 C-58.8235241 404.60238015 -49.2023363 402.52467206 -39.73828125 397.55078125 C-38.72495728 397.02859009 -38.72495728 397.02859009 -37.69116211 396.49584961 C-17.0219844 385.57299361 -5.7438216 369.13881588 4.03369141 348.64160156 C5.38179189 345.86181498 6.78040088 343.10983073 8.1796875 340.35546875 C9.20775063 338.29593185 10.23509761 336.23603731 11.26171875 334.17578125 C12.01461182 332.71217163 12.01461182 332.71217163 12.78271484 331.21899414 C15.50002715 325.68646987 16.98511016 322.24894661 15.19921875 316.23828125 C13.29796404 312.15058361 11.05693469 309.58645617 7.19921875 307.23828125 C3.30360451 306.00926337 -0.09146524 305.62671917 -3.984375 307.01953125 C-9.36294547 310.02909053 -11.99415648 313.88840999 -14.80078125 319.23828125 C-15.39503906 320.32367188 -15.98929688 321.4090625 -16.6015625 322.52734375 C-19.83582993 328.46881281 -22.93234799 334.46796829 -25.90844727 340.54272461 C-33.2342536 355.45277105 -41.52513729 367.65701369 -57.90234375 373.30859375 C-68.56585852 376.25645059 -82.3862725 375.78748656 -92.23046875 370.78125 C-93.07867187 370.27207031 -93.926875 369.76289063 -94.80078125 369.23828125 C-95.69023437 368.71878906 -96.5796875 368.19929688 -97.49609375 367.6640625 C-108.18667335 360.81890034 -114.19822776 351.09197432 -117.421875 338.88671875 C-117.93576201 335.29480751 -117.9914972 331.7340418 -117.98828125 328.11328125 C-117.98892578 327.35990479 -117.98957031 326.60652832 -117.99023438 325.83032227 C-117.94103941 320.60167987 -117.33308762 315.72159434 -116.26171875 310.59765625 C-115.26673147 305.50467052 -115.05058582 301.65829403 -117.55078125 296.92578125 C-120.87485191 292.95536352 -122.4792028 291.54159434 -127.61328125 290.36328125 C-133.31108905 289.86551737 -137.155938 291.86120318 -141.48828125 295.48828125 Z " fill="#000000" transform="translate(233.80078125,-0.23828125)"/>
<path d="M0 0 C1.9375 0.8125 1.9375 0.8125 4 2 C4.33 2.99 4.66 3.98 5 5 C4.34 5 3.68 5 3 5 C2.67 6.65 2.34 8.3 2 10 C1.505 8.515 1.505 8.515 1 7 C0.01 7 -0.98 7 -2 7 C-2.16986545 8.56215548 -2.33573964 10.1247452 -2.5 11.6875 C-2.5928125 12.55761719 -2.685625 13.42773438 -2.78125 14.32421875 C-2.99159864 16.89723339 -3.03719144 19.41984364 -3 22 C-3.99 22 -4.98 22 -6 22 C-6.09796875 22.60328125 -6.1959375 23.2065625 -6.296875 23.828125 C-7.20946904 28.70578282 -7.87595723 31.83823388 -12 35 C-11.67 35.66 -11.34 36.32 -11 37 C-11.70769531 37.69738281 -12.41539062 38.39476562 -13.14453125 39.11328125 C-16.0857397 42.0544897 -18.89093229 45.1093731 -21.6875 48.1875 C-28.27941919 55.42723064 -28.27941919 55.42723064 -31.4375 57.9375 C-33.43672382 59.54663137 -35.23750974 61.14474709 -37 63 C-37.495 61.02 -37.495 61.02 -38 59 C-38.45375 59.495 -38.9075 59.99 -39.375 60.5 C-41 62 -41 62 -43 62 C-43.495 62.99 -43.495 62.99 -44 64 C-44.33 63.01 -44.66 62.02 -45 61 C-46.98 61.66 -48.96 62.32 -51 63 C-51.33 65.31 -51.66 67.62 -52 70 C-55.65539273 71.275137 -59.20930692 72.24186138 -63 73 C-63.33 73.33 -63.66 73.66 -64 74 C-71.19689897 75.27251961 -78.36683372 74.98403569 -85.625 74.5625 C-86.62917969 74.51029297 -87.63335937 74.45808594 -88.66796875 74.40429688 C-91.11242295 74.27625404 -93.55628782 74.14139033 -96 74 C-96 73.34 -96 72.68 -96 72 C-96.59167969 72.04640625 -97.18335938 72.0928125 -97.79296875 72.140625 C-104.3333684 72.43937082 -104.3333684 72.43937082 -107.75 70.1875 C-108.4925 69.465625 -109.235 68.74375 -110 68 C-115.6026687 64.25683926 -115.6026687 64.25683926 -122 63 C-122.66 61.35 -123.32 59.7 -124 58 C-121 57 -121 57 -118.35546875 58.07421875 C-117.31003906 58.60660156 -116.26460938 59.13898438 -115.1875 59.6875 C-103.61991144 65.12287294 -94.0957096 67.34939606 -81.375 67.4375 C-79.81990723 67.45272705 -79.81990723 67.45272705 -78.23339844 67.46826172 C-67.79285597 67.35093369 -58.19279504 65.17610458 -48.9375 60.3125 C-48.26267578 59.96509766 -47.58785156 59.61769531 -46.89257812 59.25976562 C-26.28957882 48.37997056 -15.66014549 32.19481735 -5.87695312 11.81835938 C-4.61315652 9.19788133 -3.30692977 6.59917493 -2 4 C-1.608125 3.21625 -1.21625 2.4325 -0.8125 1.625 C-0.544375 1.08875 -0.27625 0.5525 0 0 Z " fill="#171516" transform="translate(243,336)"/>
<path d="M0 0 C3.99753698 2.08750874 6.36126341 4.12929419 8.09765625 8.27734375 C9.3099574 12.56080782 9.34591663 15.42808803 7.59765625 19.46484375 C5.27392148 23.54129314 2.66259859 25.99736972 -1.90234375 27.27734375 C-7.88226585 27.68364508 -12.30248236 26.2040547 -16.90234375 22.27734375 C-19.62692088 17.84637057 -19.80223061 13.32757087 -18.90234375 8.27734375 C-14.93448563 1.23053079 -8.16001483 -3.0998003 0 0 Z " fill="#030303" transform="translate(259.90234375,256.72265625)"/>
<path d="M0 0 C3.40559542 2.94119604 4.52462816 5.05015821 5.75 9.375 C6.03408114 13.82560451 5.23200619 17.19666284 2.5 20.75 C-1.2588107 24.33795567 -3.57285689 25.19203893 -8.6875 25.75 C-14.27457217 25.16188714 -17.06478423 22.77854499 -20.625 18.5625 C-22.56615304 14.75485365 -22.77821909 12.60075274 -22.25 8.375 C-20.2234039 3.35676203 -18.43786241 0.36948292 -13.5 -1.875 C-8.31919954 -3.07056934 -4.72969411 -2.36484705 0 0 Z " fill="#060606" transform="translate(352.25,315.625)"/>
<path d="M0 0 C4.64586577 1.73081274 7.47824791 3.70368162 10 8 C11.19902988 12.44298059 11.34831968 15.91406218 9.9375 20.3125 C7.51796464 23.66862969 5.76266417 25.22128603 2 27 C-2.992586 27.79556655 -6.8197888 27.53645964 -11.4375 25.4375 C-15.08545598 21.96749309 -16.74908179 18.82405988 -17.19921875 13.7578125 C-17.08617611 10.22374262 -16.74126763 7.88545435 -14.43359375 5.12890625 C-9.60028934 0.921207 -6.55143058 -0.43676204 0 0 Z " fill="#090909" transform="translate(260,154)"/>
<path d="M0 0 C3.68190518 3.14496068 5.23912075 5.79998547 6 10.5 C6.24353221 14.76181368 5.48387345 17.43978139 3 21 C-1.31876146 24.89741887 -3.99534723 26.36701401 -9.90234375 26.28125 C-14.30948663 25.69034816 -17.03365036 23.09519626 -19.875 19.875 C-21.57900152 15.52032945 -21.88142021 11.60058352 -21 7 C-18.85911836 2.98308805 -16.13316567 0.62953648 -12.1875 -1.5625 C-7.74659572 -2.17203588 -4.14917171 -1.71927004 0 0 Z " fill="#020202" transform="translate(170,315)"/>
<path d="M0 0 C2.41093773 1.85843117 3.36520963 3.31050617 5 6 C5.3125 8.875 5.3125 8.875 5 11 C2 11 2 11 0.3125 9.625 C-1 8 -1 8 -1 6 C-7.02136156 6.24560702 -7.02136156 6.24560702 -11.9375 9.5 C-12.618125 10.325 -13.29875 11.15 -14 12 C-14.33 12.33 -14.66 12.66 -15 13 C-15.23192865 14.51469448 -15.41215238 16.03754562 -15.5625 17.5625 C-15.68818359 18.80193359 -15.68818359 18.80193359 -15.81640625 20.06640625 C-15.87699219 20.70449219 -15.93757812 21.34257812 -16 22 C-19 21 -19 21 -20.15625 19.23828125 C-21.69215846 15.16385741 -21.74759346 11.26915214 -21 7 C-18.86931691 2.98109086 -16.12905706 0.62725392 -12.1875 -1.5625 C-7.7587114 -2.17037295 -4.13218704 -1.73946844 0 0 Z " fill="#171617" transform="translate(170,315)"/>
<path d="M0 0 C1.485 0.99 1.485 0.99 3 2 C2.34 3.32 1.68 4.64 1 6 C0.34 6 -0.32 6 -1 6 C-1.0928125 6.8353125 -1.0928125 6.8353125 -1.1875 7.6875 C-2.32619031 10.9283878 -4.56890452 12.6312403 -7 15 C-7 15.66 -7 16.32 -7 17 C-10 19 -10 19 -13 19 C-13.33 19.99 -13.66 20.98 -14 22 C-18.45714286 26 -18.45714286 26 -21 26 C-21 26.66 -21 27.32 -21 28 C-28.75 29.125 -28.75 29.125 -31 28 C-31 27.01 -31 26.02 -31 25 C-30.10539062 24.52691406 -29.21078125 24.05382812 -28.2890625 23.56640625 C-16.97289298 17.43648731 -8.20616942 9.97239794 0 0 Z " fill="#151314" transform="translate(406,371)"/>
<path d="M0 0 C2.9375 1.5 2.9375 1.5 5 3 C2.61828754 6.57256869 1.74606859 6.5440962 -2.25 7.625 C-7.92255439 9.51090159 -10.02877013 11.96901671 -12.78125 17.171875 C-13.1834375 17.77515625 -13.585625 18.3784375 -14 19 C-14.99 19 -15.98 19 -17 19 C-17.90873094 10.63630964 -17.90873094 10.63630964 -15.8046875 6.84765625 C-11.17516704 1.34573871 -7.34087351 -0.64393627 0 0 Z " fill="#171617" transform="translate(258,256)"/>
<path d="M0 0 C0.66 0 1.32 0 2 0 C2.1953125 2.05078125 2.390625 4.1015625 2.5859375 6.15234375 C2.72257813 6.76207031 2.85921875 7.37179687 3 8 C3.66 8.33 4.32 8.66 5 9 C3.85948204 17.29876887 2.58587986 23.41412014 -3.5 29.5 C-6 31 -6 31 -8.3125 30.75 C-8.869375 30.5025 -9.42625 30.255 -10 30 C-8.45544837 26.09797483 -6.93536846 22.86990538 -4.4375 19.5 C-0.66457662 13.77242956 -0.5815114 6.66568296 0 0 Z " fill="#131313" transform="translate(187,321)"/>
<path d="M0 0 C1.65 0.33 3.3 0.66 5 1 C3.70358572 5.32138095 1.98363489 9.18602684 -0.09765625 13.16796875 C-1.12524215 15.14990796 -1.12524215 15.14990796 -2 18 C-3.9375 17.3125 -3.9375 17.3125 -6 16 C-6.84375 13.78125 -6.84375 13.78125 -7 11 C-5.56640625 8.10546875 -5.56640625 8.10546875 -3.5625 5.1875 C-2.90378906 4.21167969 -2.24507812 3.23585938 -1.56640625 2.23046875 C-1.04949219 1.49441406 -0.53257812 0.75835937 0 0 Z " fill="#131313" transform="translate(187,296)"/>
<path d="M0 0 C1.7015625 0.495 1.7015625 0.495 3.4375 1 C7.99795849 2.15847067 12.32161006 2.19493291 17 2 C17 2.99 17 3.98 17 5 C17.66 5.33 18.32 5.66 19 6 C18.67 6.99 18.34 7.98 18 9 C7.10749186 9.78175896 7.10749186 9.78175896 2.8125 6.75 C1.18557635 4.28156411 0.59344575 2.80537989 0 0 Z " fill="#171516" transform="translate(347,399)"/>
<path d="M0 0 C1.99641149 2.99461723 2.6651717 4.48430284 3 8 C1.98251563 11.47640493 0.57376604 14.42623396 -2 17 C-4.6875 17.25 -4.6875 17.25 -7 17 C-7.875 14.9375 -7.875 14.9375 -8 12 C-6.64893252 10.06801752 -5.1205987 8.42906289 -3.50390625 6.71484375 C-1.69401932 4.65110255 -0.79277064 2.61614311 0 0 Z " fill="#181818" transform="translate(234,230)"/>
<path d="M0 0 C-5.75 3.875 -5.75 3.875 -8 5 C-8.474375 5.845625 -8.94875 6.69125 -9.4375 7.5625 C-9.953125 8.366875 -10.46875 9.17125 -11 10 C-11.99 10 -12.98 10 -14 10 C-13.67 10.99 -13.34 11.98 -13 13 C-13.66 13 -14.32 13 -15 13 C-15 14.32 -15 15.64 -15 17 C-15.763125 16.979375 -16.52625 16.95875 -17.3125 16.9375 C-20.10185786 16.87057159 -20.10185786 16.87057159 -23 18 C-20.38531839 10.32937792 -13.88897193 4.9802949 -7 1 C-2.39534884 -1.19767442 -2.39534884 -1.19767442 0 0 Z " fill="#161314" transform="translate(237,126)"/>
<path d="M0 0 C0.99 0.33 1.98 0.66 3 1 C3 4.77250192 2.6795135 6.25995326 1.1875 9.5625 C0.68283203 10.70912109 0.68283203 10.70912109 0.16796875 11.87890625 C-0.99700496 13.99456085 -2.21112941 15.39565474 -4 17 C-8 12.375 -8 12.375 -8 9 C-6.50834918 7.73533952 -5.01201855 6.47456633 -3.46875 5.2734375 C-1.69333409 3.73411413 -0.8127486 2.19442123 0 0 Z " fill="#100F0F" transform="translate(277,280)"/>
<path d="M0 0 C0.99 0.495 0.99 0.495 2 1 C1.01 1.495 1.01 1.495 0 2 C0 1.34 0 0.68 0 0 Z M-1 2 C-0.01 2.66 0.98 3.32 2 4 C0.53112033 8.65145228 0.53112033 8.65145228 -2 10.3125 C-4 11 -4 11 -6 11 C-7.25664978 13.90600261 -8 15.79604584 -8 19 C-10.31 19 -12.62 19 -15 19 C-13.70396588 16.17131143 -12.30810402 14.0298979 -10.1796875 11.765625 C-9.64472656 11.19199219 -9.10976563 10.61835938 -8.55859375 10.02734375 C-8.00300781 9.44082031 -7.44742187 8.85429687 -6.875 8.25 C-6.31167969 7.64800781 -5.74835938 7.04601562 -5.16796875 6.42578125 C-3.78275854 4.94665849 -2.3919271 3.47280359 -1 2 Z " fill="#131313" transform="translate(295,229)"/>
<path d="M0 0 C6.30596952 1.10938353 11.37529486 2.93197901 17 6 C15.125 10.75 15.125 10.75 14 13 C12.68 13 11.36 13 10 13 C10.33 10.69 10.66 8.38 11 6 C9.96875 5.855625 8.9375 5.71125 7.875 5.5625 C4.57450187 5.08339543 1.28731659 4.56124917 -2 4 C-2 3.34 -2 2.68 -2 2 C-1.34 2 -0.68 2 0 2 C0 1.34 0 0.68 0 0 Z " fill="#121111" transform="translate(262,123)"/>
<path d="M0 0 C0.66 0 1.32 0 2 0 C3.12377697 3.30435084 2.89554742 5.0506862 1.5625 8.25 C1.27503906 8.95640625 0.98757813 9.6628125 0.69140625 10.390625 C0.46324219 10.92171875 0.23507812 11.4528125 0 12 C-0.33 11.34 -0.66 10.68 -1 10 C-2.98 10.66 -4.96 11.32 -7 12 C-7.33 11.01 -7.66 10.02 -8 9 C-6.8553125 7.88625 -6.8553125 7.88625 -5.6875 6.75 C-3.04428801 4.176446 -3.04428801 4.176446 -1.3125 1.6875 C-0.879375 1.130625 -0.44625 0.57375 0 0 Z " fill="#181616" transform="translate(365,340)"/>
<path d="M0 0 C-1.4338011 5.01830384 -3.7898897 7.13712499 -8 10 C-10.375 9.8125 -10.375 9.8125 -12 9 C-7.71428571 -2.35714286 -7.71428571 -2.35714286 0 0 Z " fill="#181818" transform="translate(189,342)"/>
<path d="M0 0 C2.2265625 0.10546875 2.2265625 0.10546875 5 1 C6.71738628 3.11574908 8.02619302 4.98618683 9.375 7.3125 C9.74238281 7.89451172 10.10976562 8.47652344 10.48828125 9.07617188 C13.07034136 13.37798145 13.07034136 13.37798145 12.7265625 16.41796875 C12.48679688 16.94003906 12.24703125 17.46210938 12 18 C11.34 18 10.68 18 10 18 C9.71125 17.195625 9.4225 16.39125 9.125 15.5625 C8.26737432 12.8673532 8.26737432 12.8673532 6 12 C6 11.34 6 10.68 6 10 C5.34 10 4.68 10 4 10 C4 7.36 4 4.72 4 2 C2.68 1.34 1.36 0.68 0 0 Z " fill="#110F0F" transform="translate(180,197)"/>
<path d="M0 0 C2.4375 2.0625 2.4375 2.0625 4 4 C2.02 4.99 2.02 4.99 0 6 C-0.99 5.34 -1.98 4.68 -3 4 C-4.32 4 -5.64 4 -7 4 C-7.99 4 -8.98 4 -10 4 C-10.33 3.01 -10.66 2.02 -11 1 C-7.21908853 -1.5710198 -4.32093764 -1.08023441 0 0 Z " fill="#151214" transform="translate(349,314)"/>
<path d="M0 0 C2.31 0 4.62 0 7 0 C6.45276317 3.37462715 5.9451 5.08235 4 8 C2.35 7.67 0.7 7.34 -1 7 C-1 8.65 -1 10.3 -1 12 C-1.33 12 -1.66 12 -2 12 C-2.17835515 7.45194365 -1.99785435 4.1205746 0 0 Z " fill="#181718" transform="translate(209,152)"/>
<path d="M0 0 C1.1446875 0.3403125 1.1446875 0.3403125 2.3125 0.6875 C1.5625 6.4375 1.5625 6.4375 -0.6875 8.6875 C-2.8125 8.3125 -2.8125 8.3125 -4.6875 7.6875 C-5.375 5.375 -5.375 5.375 -5.6875 2.6875 C-4.0011022 -0.12316299 -3.27764429 -0.38112143 0 0 Z " fill="#0F0F0F" transform="translate(280.6875,181.3125)"/>
<path d="M0 0 C-0.33 1.98 -0.66 3.96 -1 6 C-0.34 6.33 0.32 6.66 1 7 C-0.62339805 8.70884005 -2.29319053 10.37446717 -4 12 C-4.66 12 -5.32 12 -6 12 C-5 0 -5 0 0 0 Z " fill="#131012" transform="translate(336,317)"/>
<path d="M0 0 C2.8125 -0.3125 2.8125 -0.3125 6 0 C7.75 2.3125 7.75 2.3125 9 5 C9.99 6.485 9.99 6.485 11 8 C10.625 10.6875 10.625 10.6875 10 13 C9.7525 12.38125 9.505 11.7625 9.25 11.125 C8.19197336 8.85109061 8.19197336 8.85109061 6 8.125 C3.03850533 6.45915925 2.93785961 4.14852869 2 1 C1.34 0.67 0.68 0.34 0 0 Z " fill="#171717" transform="translate(224,276)"/>
<path d="M0 0 C2.90783477 3.53094222 5.71858548 7.02864881 8 11 C7.75 13.375 7.75 13.375 7 15 C7 14.34 7 13.68 7 13 C6.34 13 5.68 13 5 13 C1.78763013 10.28956293 0.46822372 7.88030556 -1 4 C-1.66 3.67 -2.32 3.34 -3 3 C-2.01 2.01 -1.02 1.02 0 0 Z " fill="#141314" transform="translate(266,194)"/>
<path d="M0 0 C4 0 4 0 5.88671875 1.609375 C6.48097656 2.31578125 7.07523437 3.0221875 7.6875 3.75 C8.28949219 4.44609375 8.89148438 5.1421875 9.51171875 5.859375 C10.97986885 7.97104497 11.57562182 9.48768115 12 12 C10.68 12.33 9.36 12.66 8 13 C8 12.01 8 11.02 8 10 C6.77277259 8.52007842 6.77277259 8.52007842 5 7 C3.29413425 5.37347684 1.6222454 3.70993434 0 2 C0 1.34 0 0.68 0 0 Z " fill="#0D0D0D" transform="translate(101,378)"/>
<path d="M0 0 C6.70459519 4.93654267 6.70459519 4.93654267 7.9375 9.375 C7.958125 10.24125 7.97875 11.1075 8 12 C7.67 11.34 7.34 10.68 7 10 C6.34 10 5.68 10 5 10 C4.67 10.99 4.34 11.98 4 13 C2.5393715 10.35261084 2 9.10551666 2 6 C0.68 5.34 -0.64 4.68 -2 4 C-1.34 2.68 -0.68 1.36 0 0 Z " fill="#171515" transform="translate(375,291)"/>
<path d="M0 0 C1.32 0.33 2.64 0.66 4 1 C3.278125 1.70125 2.55625 2.4025 1.8125 3.125 C-0.16932126 5.08993073 -1.94707153 7.13178456 -3.6875 9.3125 C-4.450625 10.199375 -5.21375 11.08625 -6 12 C-6.66 12 -7.32 12 -8 12 C-7.690625 11.113125 -7.38125 10.22625 -7.0625 9.3125 C-6.1709329 6.53290845 -5.50622993 3.86863625 -5 1 C-3.68 1.66 -2.36 2.32 -1 3 C-0.67 2.01 -0.34 1.02 0 0 Z " fill="#131112" transform="translate(228,372)"/>
<path d="M0 0 C1.23637074 3.96668945 0.35517821 6.10386264 -1 10 C-0.67 10.66 -0.34 11.32 0 12 C-0.99 12.33 -1.98 12.66 -3 13 C-3.33 13.66 -3.66 14.32 -4 15 C-4.99 14.67 -5.98 14.34 -7 14 C-6.34097701 10.42959697 -4.83770842 7.82267745 -2.9375 4.75 C-2.38964844 3.85796875 -1.84179688 2.9659375 -1.27734375 2.046875 C-0.64505859 1.03367187 -0.64505859 1.03367187 0 0 Z " fill="#1F1B1C" transform="translate(231,360)"/>
<path d="M0 0 C2.00045613 0.26956501 3.98036247 0.68194312 5.953125 1.109375 C5.953125 2.429375 5.953125 3.749375 5.953125 5.109375 C3.313125 5.439375 0.673125 5.769375 -2.046875 6.109375 C-2.046875 5.449375 -2.046875 4.789375 -2.046875 4.109375 C-3.366875 4.439375 -4.686875 4.769375 -6.046875 5.109375 C-3.15469741 0.16857162 -3.15469741 0.16857162 0 0 Z " fill="#0C0C0C" transform="translate(257.046875,153.890625)"/>
<path d="M0 0 C1.32 0 2.64 0 4 0 C4.67354499 1.43429001 5.33859701 2.87257057 6 4.3125 C6.556875 5.51326172 6.556875 5.51326172 7.125 6.73828125 C8 9 8 9 8 12 C5 11 5 11 3 9 C2.34 8.67 1.68 8.34 1 8 C1 7.34 1 6.68 1 6 C1.66 6 2.32 6 3 6 C2.01 4.02 1.02 2.04 0 0 Z " fill="#101010" transform="translate(255,295)"/>
<path d="M0 0 C2.64 1.98 5.28 3.96 8 6 C7.67 6.99 7.34 7.98 7 9 C6.01 9.33 5.02 9.66 4 10 C2.68 8.02 1.36 6.04 0 4 C-0.99 4.495 -0.99 4.495 -2 5 C-1.125 1.125 -1.125 1.125 0 0 Z " fill="#161314" transform="translate(323,342)"/>
<path d="M0 0 C0.66 0 1.32 0 2 0 C2.1953125 2.05078125 2.390625 4.1015625 2.5859375 6.15234375 C2.72257813 6.76207031 2.85921875 7.37179687 3 8 C3.66 8.33 4.32 8.66 5 9 C5 9.66 5 10.32 5 11 C3.68 11 2.36 11 1 11 C0.67 11.99 0.34 12.98 0 14 C-1.03115279 10.73086376 -0.9638984 8.13958652 -0.5625 4.75 C-0.46066406 3.85796875 -0.35882813 2.9659375 -0.25390625 2.046875 C-0.17011719 1.37140625 -0.08632812 0.6959375 0 0 Z " fill="#0C0A0B" transform="translate(187,321)"/>
<path d="M0 0 C3.39417765 3.12621626 5.6062718 5.56541027 7 10 C5.35 10.66 3.7 11.32 2 12 C1.67 11.34 1.34 10.68 1 10 C1.33 9.01 1.66 8.02 2 7 C0.62507196 3.8331162 0.62507196 3.8331162 -1 1 C-0.67 0.67 -0.34 0.34 0 0 Z " fill="#0E0E0E" transform="translate(234,179)"/>
<path d="M0 0 C0.33 0.66 0.66 1.32 1 2 C-0.65 3.98 -2.3 5.96 -4 8 C-4.33 7.34 -4.66 6.68 -5 6 C-5.99 6 -6.98 6 -8 6 C-8 5.34 -8 4.68 -8 4 C-3.64705882 0 -3.64705882 0 0 0 Z " fill="#181717" transform="translate(277,285)"/>
<path d="M0 0 C2.31 0.66 4.62 1.32 7 2 C7 2.66 7 3.32 7 4 C4.7252187 5.38111722 3.49828639 6.05694702 0.8125 5.75 C-1 5 -1 5 -2 3 C-1.34 2.01 -0.68 1.02 0 0 Z " fill="#141414" transform="translate(210,241)"/>
<path d="M0 0 C0.99 1.98 1.98 3.96 3 6 C1.02 6.99 1.02 6.99 -1 8 C-3.22189824 5.77810176 -3.92598892 3.91517292 -5 1 C-2 0 -2 0 0 0 Z " fill="#0F0F0F" transform="translate(205,232)"/>
<path d="M0 0 C1.5 1.1875 1.5 1.1875 3 3 C3.1875 5.6875 3.1875 5.6875 3 8 C0 8 0 8 -1.6875 6.5 C-2.120625 6.005 -2.55375 5.51 -3 5 C-2 2 -2 2 0 0 Z " fill="#0F0E0F" transform="translate(172,318)"/>
<path d="M0 0 C1.35158203 0.15275391 1.35158203 0.15275391 2.73046875 0.30859375 C3.41753906 0.39238281 4.10460937 0.47617188 4.8125 0.5625 C4.4825 1.5525 4.1525 2.5425 3.8125 3.5625 C1.99924449 3.44898483 0.18686643 3.32137039 -1.625 3.1875 C-3.13900391 3.08308594 -3.13900391 3.08308594 -4.68359375 2.9765625 C-5.50988281 2.83992188 -6.33617187 2.70328125 -7.1875 2.5625 C-7.5175 1.9025 -7.8475 1.2425 -8.1875 0.5625 C-4.98734144 -0.50421952 -3.30205706 -0.38595472 0 0 Z " fill="#11110D" transform="translate(255.1875,122.4375)"/>
<path d="M0 0 C1.32 0.66 2.64 1.32 4 2 C3.34 3.65 2.68 5.3 2 7 C0.35 6.67 -1.3 6.34 -3 6 C-3.33 5.01 -3.66 4.02 -4 3 C-3.01 2.67 -2.02 2.34 -1 2 C-0.67 1.34 -0.34 0.68 0 0 Z " fill="#110F10" transform="translate(140,401)"/>
<path d="M0 0 C1 2 1 2 0.44140625 3.9453125 C0.15136719 4.66460937 -0.13867188 5.38390625 -0.4375 6.125 C-0.72496094 6.84945313 -1.01242187 7.57390625 -1.30859375 8.3203125 C-1.53675781 8.87460937 -1.76492188 9.42890625 -2 10 C-2.33 9.34 -2.66 8.68 -3 8 C-3.99 7.67 -4.98 7.34 -6 7 C-5.525625 6.566875 -5.05125 6.13375 -4.5625 5.6875 C-2.76313043 3.97690387 -2.76313043 3.97690387 -2 1 C-1.34 0.67 -0.68 0.34 0 0 Z M-8 8 C-7.34 8.33 -6.68 8.66 -6 9 C-6.99 9 -7.98 9 -9 9 C-8.67 8.67 -8.34 8.34 -8 8 Z " fill="#0E0D0E" transform="translate(367,342)"/>
<path d="M0 0 C0.66 1.32 1.32 2.64 2 4 C1.01 5.485 1.01 5.485 0 7 C-0.165 7.86625 -0.33 8.7325 -0.5 9.625 C-0.7475 10.800625 -0.7475 10.800625 -1 12 C-1.99 12.495 -1.99 12.495 -3 13 C-2.88610125 11.20759337 -2.75852313 9.41605165 -2.625 7.625 C-2.55539063 6.62726563 -2.48578125 5.62953125 -2.4140625 4.6015625 C-2 2 -2 2 0 0 Z " fill="#110F10" transform="translate(119,306)"/>
<path d="M0 0 C0.33 0.99 0.66 1.98 1 3 C0.67 3.33 0.34 3.66 0 4 C-0.23192865 5.51469448 -0.41215238 7.03754562 -0.5625 8.5625 C-0.64628906 9.38878906 -0.73007813 10.21507812 -0.81640625 11.06640625 C-0.87699219 11.70449219 -0.93757812 12.34257812 -1 13 C-1.99 12.67 -2.98 12.34 -4 12 C-5.1875 9.4375 -5.1875 9.4375 -6 7 C-5.01 7 -4.02 7 -3 7 C-2.01 4.69 -1.02 2.38 0 0 Z " fill="#0F0D0E" transform="translate(155,324)"/>
<path d="M0 0 C1.65 0.99 3.3 1.98 5 3 C4.67 3.66 4.34 4.32 4 5 C3.34 5 2.68 5 2 5 C1.67 5.99 1.34 6.98 1 8 C0.01 7.01 -0.98 6.02 -2 5 C-1.34 3.35 -0.68 1.7 0 0 Z " fill="#101010" transform="translate(236,287)"/>
<path d="M0 0 C1.485 0.99 1.485 0.99 3 2 C3.1875 5.125 3.1875 5.125 3 8 C2.01 8 1.02 8 0 8 C-1.125 2.25 -1.125 2.25 0 0 Z " fill="#121212" transform="translate(264,260)"/>
<path d="M0 0 C0.99 0.33 1.98 0.66 3 1 C3 3.66053211 2.80664504 5.49940039 2 8 C1.34 8.66 0.68 9.32 0 10 C-1.125 2.25 -1.125 2.25 0 0 Z " fill="#131011" transform="translate(244,163)"/>
<path d="M0 0 C4 6 4 6 3.625 8.6875 C3.41875 9.450625 3.2125 10.21375 3 11 C2.731875 10.38125 2.46375 9.7625 2.1875 9.125 C1.04443152 6.7004767 1.04443152 6.7004767 -2 5 C-1.34 3.35 -0.68 1.7 0 0 Z " fill="#0E0E0E" transform="translate(231,278)"/>
<path d="M0 0 C3.63 0 7.26 0 11 0 C10.67 0.66 10.34 1.32 10 2 C7.93359375 2.6328125 7.93359375 2.6328125 5.4375 3.125 C4.19806641 3.37636719 4.19806641 3.37636719 2.93359375 3.6328125 C2.29550781 3.75398437 1.65742188 3.87515625 1 4 C0.67 2.68 0.34 1.36 0 0 Z " fill="#1B1819" transform="translate(249,192)"/>
<path d="M0 0 C1.65 0.33 3.3 0.66 5 1 C4.67 1.99 4.34 2.98 4 4 C3.34 4 2.68 4 2 4 C1.67 4.66 1.34 5.32 1 6 C0.01 5.01 -0.98 4.02 -2 3 C-1.34 2.01 -0.68 1.02 0 0 Z " fill="#191919" transform="translate(187,296)"/>
<path d="M0 0 C2.25 0.25 2.25 0.25 4 1 C3.67 2.32 3.34 3.64 3 5 C0.69 4.67 -1.62 4.34 -4 4 C-2.25 1.9375 -2.25 1.9375 0 0 Z M1 2 C2 4 2 4 2 4 Z " fill="#151515" transform="translate(311,138)"/>
<path d="M0 0 C-0.75 1.9375 -0.75 1.9375 -2 4 C-4.125 4.75 -4.125 4.75 -6 5 C-6 4.34 -6 3.68 -6 3 C-6.66 3 -7.32 3 -8 3 C-8 2.34 -8 1.68 -8 1 C-5.07175348 0.02391783 -3.04386724 -0.08226668 0 0 Z " fill="#111110" transform="translate(246,123)"/>
<path d="M0 0 C0.99 0.33 1.98 0.66 3 1 C1.8553125 2.051875 1.8553125 2.051875 0.6875 3.125 C-1.96590478 5.96352604 -3.44000743 8.46949051 -5 12 C-5.33 11.01 -5.66 10.02 -6 9 C-4.78515625 6.73828125 -4.78515625 6.73828125 -3.0625 4.3125 C-2.49660156 3.50425781 -1.93070313 2.69601563 -1.34765625 1.86328125 C-0.90292969 1.24839844 -0.45820312 0.63351563 0 0 Z " fill="#070707" transform="translate(50,97)"/>
<path d="M0 0 C0.99 0.33 1.98 0.66 3 1 C2.34 3.31 1.68 5.62 1 8 C-0.32 7.01 -1.64 6.02 -3 5 C-2.01 3.35 -1.02 1.7 0 0 Z " fill="#0A0A0A" transform="translate(315,132)"/>
<path d="M0 0 C1.32 0.66 2.64 1.32 4 2 C4 3.65 4 5.3 4 7 C3.38125 6.525625 2.7625 6.05125 2.125 5.5625 C0.09294454 3.97582559 0.09294454 3.97582559 -2 3 C-1.34 2.01 -0.68 1.02 0 0 Z " fill="#141414" transform="translate(274,209)"/>
<path d="M0 0 C0.99 0.99 1.98 1.98 3 3 C2.34 4.32 1.68 5.64 1 7 C0.34 6.67 -0.32 6.34 -1 6 C-1 5.34 -1 4.68 -1 4 C-1.66 3.67 -2.32 3.34 -3 3 C-2.01 2.01 -1.02 1.02 0 0 Z " fill="#1A181A" transform="translate(266,194)"/>
<path d="M0 0 C0.99 0 1.98 0 3 0 C3.33 0.99 3.66 1.98 4 3 C2.02 3.66 0.04 4.32 -2 5 C-2 2 -2 2 0 0 Z " fill="#1B1A1A" transform="translate(399,379)"/>
<path d="M0 0 C1.9451 2.91765 2.45276317 4.62537285 3 8 C2.01 8 1.02 8 0 8 C0 7.34 0 6.68 0 6 C-0.66 5.67 -1.32 5.34 -2 5 C-1.34 3.35 -0.68 1.7 0 0 Z " fill="#0E0E0E" transform="translate(234,230)"/>
<path d="M0 0 C0.99 0 1.98 0 3 0 C3 1.65 3 3.3 3 5 C2.01 5 1.02 5 0 5 C0 6.65 0 8.3 0 10 C-0.33 10 -0.66 10 -1 10 C-1.125 3.375 -1.125 3.375 0 0 Z " fill="#100F0F" transform="translate(208,154)"/>
<path d="M0 0 C0.99 0.33 1.98 0.66 3 1 C3 1.99 3 2.98 3 4 C2.34 4 1.68 4 1 4 C1 4.66 1 5.32 1 6 C0.01 6 -0.98 6 -2 6 C-1.34 4.02 -0.68 2.04 0 0 Z " fill="#191718" transform="translate(212,145)"/>
<path d="M0 0 C2.31 0.66 4.62 1.32 7 2 C7 2.99 7 3.98 7 5 C6.38125 4.835 5.7625 4.67 5.125 4.5 C3.03936614 3.92365356 3.03936614 3.92365356 1 4 C0.67 2.68 0.34 1.36 0 0 Z " fill="#171614" transform="translate(360,282)"/>
<path d="M0 0 C0.99 0.33 1.98 0.66 3 1 C2.67 3.31 2.34 5.62 2 8 C1.01 7.34 0.02 6.68 -1 6 C-0.67 4.02 -0.34 2.04 0 0 Z " fill="#1C1C1C" transform="translate(278,181)"/>
<path d="M0 0 C0.99 1.32 1.98 2.64 3 4 C2.34 5.32 1.68 6.64 1 8 C0.01 6.68 -0.98 5.36 -2 4 C-1.34 2.68 -0.68 1.36 0 0 Z " fill="#161415" transform="translate(267,161)"/>
<path d="M0 0 C1.65 0.99 3.3 1.98 5 3 C4.67 3.99 4.34 4.98 4 6 C3.01 6 2.02 6 1 6 C1 4.68 1 3.36 1 2 C0.34 1.67 -0.32 1.34 -1 1 C-0.67 0.67 -0.34 0.34 0 0 Z " fill="#100F0F" transform="translate(287,136)"/>
<path d="M0 0 C0.66 0 1.32 0 2 0 C2 0.66 2 1.32 2 2 C2.66 2.33 3.32 2.66 4 3 C1.6875 4.125 1.6875 4.125 -1 5 C-1.99 4.34 -2.98 3.68 -4 3 C-3.67 2.34 -3.34 1.68 -3 1 C-2.01 1.33 -1.02 1.66 0 2 C0 1.34 0 0.68 0 0 Z " fill="#1E1B1C" transform="translate(212,387)"/>
<path d="M0 0 C0.66 0 1.32 0 2 0 C1.67 1.98 1.34 3.96 1 6 C0.34 6 -0.32 6 -1 6 C-1.625 4.125 -1.625 4.125 -2 2 C-1.34 1.34 -0.68 0.68 0 0 Z " fill="#191819" transform="translate(334,317)"/>
<path d="M0 0 C0.66 1.32 1.32 2.64 2 4 C1.01 5.485 1.01 5.485 0 7 C-0.99 6.34 -1.98 5.68 -3 5 C-3 3 -3 3 -1.5 1.375 C-1.005 0.92125 -0.51 0.4675 0 0 Z " fill="#0A0A0A" transform="translate(245,272)"/>
<path d="M0 0 C0.99 0.33 1.98 0.66 3 1 C3 2.32 3 3.64 3 5 C2.01 5.33 1.02 5.66 0 6 C-0.38218767 4.34385343 -0.71395102 2.67542976 -1 1 C-0.67 0.67 -0.34 0.34 0 0 Z " fill="#101010" transform="translate(281,220)"/>
<path d="M0 0 C1.32 1.65 2.64 3.3 4 5 C2.68 5.33 1.36 5.66 0 6 C0 5.34 0 4.68 0 4 C-1.32 4.33 -2.64 4.66 -4 5 C-2.68 3.35 -1.36 1.7 0 0 Z " fill="#141414" transform="translate(255,154)"/>
<path d="M0 0 C2.49361571 1.20381448 4.68143083 2.45428722 7 4 C6.67 4.66 6.34 5.32 6 6 C3.37812506 4.95125002 2.20628639 4.35068687 0.75 1.875 C0.5025 1.25625 0.255 0.6375 0 0 Z " fill="#0E0D0E" transform="translate(279,130)"/>
</svg>
